<svg version="1" xmlns="http://www.w3.org/2000/svg" width="1136" height="1136" viewBox="0 0 852.000000 852.000000"><path d="M707.2 83.2c.3.7 3.1 3.4 6.3 6 4.3 3.5 7.2 5 11.4 5.9 9.1 1.8 12.7 3.7 17.1 9 4.1 4.9 4.3 5 9.4 4.7 4.3-.3 5.1-.6 5.1-2.3 0-1.4-1.7-2.9-5.6-5-3.1-1.7-7.1-4.2-9-5.6-1.9-1.4-5.2-2.9-7.4-3.3-2.1-.4-5.4-2.1-7.3-3.7-2.1-1.9-4.4-2.9-6.5-2.9-1.8 0-5.2-.9-7.6-2-5-2.3-6.4-2.5-5.9-.8zM512.9 94.1c-44.9 6.6-84.2 36.4-100.7 76.4-8.1 19.7-10.9 36.7-9.1 55.9 2.3 25.3 8.7 45.1 19.7 61.5l3 4.3-4 5.3c-4.4 5.9-9.4 8.8-10.8 6.4-.6-.8-.4-2 .6-3 3.1-3.5.3-7.3-6.3-8.5-1.8-.3-3.3-1-3.3-1.5 0-.4-1.1-1.9-2.5-3.3-2.4-2.4-3.2-5.5-1.8-6.9.3-.4.7-2.8.8-5.5.1-3 1.2-6.4 2.9-9.5 1.8-3.1 2.6-5.9 2.4-8-.3-3-.6-3.2-4.4-3.5-5-.4-6.4 1.1-6.8 7-.7 9.4-5.9 15.7-15.8 18.9-6.7 2.1-7.1 2.4-9 6.8-1.1 2.5-2.6 5.3-3.4 6.2-1.9 2.1-.8 7.9 1.5 7.9 3 0 27.8 8.8 34.8 12.3 3.8 2 8.7 3.9 10.9 4.3 2.1.3 4.8 1.2 5.9 1.8 1.1.6 4.1 1.1 6.6 1.2 3.2.1 5.8.9 8 2.5 1.9 1.3 4.5 2.5 5.8 2.6 1.3.1 3.2 1 4.2 1.9 1.1 1 2.2 1.5 2.5 1.1.7-.6 8.1 3 8.9 4.4.3.4 2.8 2 5.5 3.5 2.8 1.5 5 3.1 5 3.6 0 1.4 6.1 7.7 8.2 8.4 1 .3 3.2 3 4.9 6 3.1 5.3 4.5 6.9 6.4 6.9.6 0 1.2 1.3 1.3 3 .2 1.6 1 3.7 1.7 4.5.7.8 2.1 4.1 3 7.4 1 3.2 2 5.4 2.4 4.8.4-.6 1.9 1.1 3.5 3.9 3.1 5.6 3.1 6.6-.3 4.3-1.5-1.1-2.1-2.3-1.8-3.5.4-1.6-.1-1.9-2.9-1.9-4 0-8.7-2.1-10.6-4.8-2-2.8-8.2-6.2-11.3-6.2-1.6 0-3.6.7-4.6 1.6-.9.8-4.4 2.3-7.6 3.3-5.6 1.6-6 1.9-11.6 10.1-3.2 4.7-6.7 10-7.9 11.8-1.1 1.8-4 4.6-6.4 6.3l-4.4 3 .6 5.7c.4 3.1 1.7 7.7 2.9 10.2 1.2 2.5 3.3 6.6 4.6 9.2 1.7 3.4 3 4.8 4.9 5.1 1.4.2-8.9.5-22.7.6l-25.3.1-.1 29.2c0 16.1 0 39.3.1 51.5l.1 22.2-4.8 2.4c-3.8 2-5 2.2-6 1.2-.7-.8-.8-1.6-.2-2.2 1.5-1.5-.1-4.4-2-3.9-5 1.5-7.1 1.7-7.1.8 0-.6-.7-1.8-1.6-2.6-2.5-2.6-2.2-19.6.5-24.2 1.2-1.9 2.1-4.2 2.1-5.1 0-1.1.6-1.4 2.4-.9 3.3.8 7.1-.8 9.1-3.7 1.6-2.5 1.5-3.3-1.5-15.4-.7-3.1.5-8.6 3-13.3.6-1.2.3-2.9-1.1-5.6-1.1-2.2-2.4-6.6-2.9-9.8-1-6.7-.3-8.7 6-17.1 2-2.8 4.5-6.5 5.5-8.4 2.2-4.3 5.5-16.2 5.5-19.9 0-1.9 1.1-3.8 3.1-5.8 3.3-3.1 6.9-9.3 6.9-11.9 0-.9 1.4-3 3-4.7l3-3-1.5-4.4c-.8-2.5-1.5-6.1-1.5-8.2 0-4.7-.4-5.1-7.1-9.5-3.1-1.9-6-4-6.4-4.6-.3-.6-2.8-2.2-5.5-3.6-6.6-3.4-8.3-5.1-6.8-7.4.6-1 .8-2.6.5-3.4-.8-2.2-5.5-3.3-7.9-1.8-3.2 2-13.1-.5-15.6-3.9-1.7-2.3-3.4-3-8.8-3.9-3.7-.7-7.7-1.7-8.8-2.3-1.2-.7-4.3-1.7-7.1-2.4-5.9-1.5-15.7-5.5-18-7.4-1.4-1.2-1.2-1.6 2-4.2 4-3.3 4.3-4.8 1.7-7.1-2.1-1.9-6.1-2.2-11.1-.7-3.3.9-3.6.7-8-3.8-2.5-2.6-6.8-6.3-9.6-8.2-2.7-1.9-8.3-6.3-12.2-9.9l-7.3-6.6v-29.6c0-32.8-.4-30.9 6.6-30.9 5.2 0 4.1-1.7-1.6-2.4l-5-.7v-52.4l-36.8-36.8L201.5 97h-60.6l.5 122.6c.4 110.5.6 122.8 2.1 124.4 1.5 1.6 1.4 2-1.6 4.9-2.7 2.8-3 3.6-2.3 6.4.4 1.8.8 7 .9 11.7v8.5l4.9 2.4c2.9 1.5 5.6 3.8 6.8 5.8 2 3.3 2.7 3.6 9.9 4.8 2.1.3 4.2 1.2 4.9 2 2 2.4 4.1 1.9 3.5-.8-.5-1.7.1-3 2.2-4.8 1.5-1.5 3.3-3.5 3.9-4.5 1-1.7 1.6-1.3 7.3 4.1l6.2 5.9-5.3 1.2c-2.9.6-7.8 2.1-10.8 3.3-4.5 1.8-5.7 1.9-6.4.8-.7-1.2-1.8-1.2-6.5 0-3.1.7-9.7 1.5-14.6 1.6-7.6.3-9.7.8-13 2.9-2.2 1.4-4.6 3.3-5.4 4.2-.7.9-2.6 1.6-4.1 1.6-3.5 0-10.9 2.6-13.1 4.6-.9.8-5.6 2.2-10.4 3.1-8.5 1.6-8.9 1.5-16.5-.6-4.2-1.3-9-2.2-10.6-2-1.6.1-5.7.1-9.1.1l-6.2-.2-2.7-4.8c-4.3-7.4-5.7-8.2-15.1-8.2-9.1 0-10.3-.8-10.3-6.9 0-3.3-2.2-5.1-6.2-5.1-5 0-6.4 5.1-2.5 8.8 1.3 1.2 3.1 2.2 4 2.2 2.1 0 3.8 3.2 2.7 5-.6 1-1.8.3-4.7-2.8-3.7-3.9-13.5-9.3-19.6-10.8l-2.7-.6v179l3.7-1c2.1-.6 6.5-.8 9.8-.4 3.3.3 8.5.9 11.6 1.2l5.6.6 2.1-3.6c1.2-2 2.9-3.9 3.8-4.3 2.4-.9 5.7 3.4 5.1 6.6-.3 1.6.1 3 1.1 3.8 1.5 1.1 1.5 1.2-.4 1.3-1.4 0-2.7 1.4-4.2 4.4-3.3 6.8-8.4 9.4-27.7 13.8-8.5 2-10 2.6-10.1 4.3-.1 3.6 1.6 4.5 8.2 4.5 6.3 0 15.2-2.7 18.4-5.5 1.9-1.7 9.8-4.5 12.7-4.5 1.2 0 2.9.7 3.7 1.6 3.8 3.7-1 9.2-10.9 12.4-7.8 2.5-9.5 3.5-9.5 5.8 0 2.6 10.4.9 19-3.2 4.1-2 9.6-3.9 12.2-4.2 3.4-.5 5.2-1.3 6.2-2.9 2.1-3.1 11-4.4 13.7-1.9 1.1.9 1.9 2.3 1.9 3.1 0 1.6.3 1.6 4.5-.1l3.5-1.5v14.6l-6.8.6c-3.8.3-9.5 1.5-12.7 2.6-3.2 1.1-6.1 1.8-6.5 1.6-.4-.2-1.5 1.1-2.6 3-1 1.9-3.3 4.2-5.1 5.2-6.3 3.4-1.7 3.2 5.1-.2 3.8-1.9 7.5-3.5 8.4-3.5.8 0 2.3-.7 3.3-1.6 1-.9 3.2-1.9 5.1-2.4 1.8-.5 4.8-1.4 6.5-2.1 2.4-1 3.6-1 4.4-.2.8.8 1.1 10.9 1.2 32.3l.1 31.3-4.2 3.6c-2.3 2-4.2 4-4.2 4.4 0 1.3 4.8.7 6-.9 1.2-1.3 2.1-.8 7.2 4.3 8.3 8.1 16.2 17.3 15.5 18-.3.3-2 0-3.8-.6-2.8-1-3.7-.8-6.6 1.1-1.8 1.3-4.2 3.8-5.3 5.6l-1.9 3.2h7.4c4.9 0 7.5.4 7.8 1.2.3.8 1.9-.1 4.2-2.6l3.7-3.9 24.1 24.1 24.2 24.2h70.2l1.2 2.4c1.8 3.2.7 7.6-4 16.2-2.1 3.9-3.9 8.4-3.9 9.9 0 2.7-5.4 13.3-9.6 19-3.4 4.5-9.4 18.4-10.5 24-.5 2.7-2.5 8.3-4.4 12.4-1.9 4-3.5 7.5-3.5 7.7 0 .2 1.4.4 3 .4 2.9 0 3.3-.5 8-10.6 2.8-5.8 5-11.6 5-12.8 0-1.2.8-3.7 1.8-5.6 1.1-1.9 2.2-5 2.6-6.9.3-1.9 1.7-4.8 3-6.5 2.8-3.8 9.3-17.5 11.1-23.6 2.1-6.8 6.8-18 7.7-18 .4 0 2.9 1.4 5.5 3 2.6 1.7 5.9 3 7.5 3 2.1 0 2.6.4 2.1 1.6-.4 1 0 2 1 2.6 2.7 1.5 2 4.3-4.3 17.2-6 12.2-6.9 15.7-5 18.6.9 1.3 1.5 1 4-1.7 1.6-1.8 3.2-4.5 3.5-6 .4-1.6 1.9-7.1 3.5-12.3 1.6-5.2 3.6-12 4.4-15.1 1.4-4.9 2-5.7 4.4-6.2 5.9-1.2 13.9-4.8 18.9-8.6l5.1-4 .7 3.9c.4 2.2.4 4.4.1 4.9-.3.5-.1 3.2.5 5.9l1 5.1 5.7-5.7c3.2-3.2 8.7-7.6 12.2-10l6.5-4.2H348v-55.4l-3.7-3.8c-2.9-3-3.4-4-2.4-5.2 3.5-4.2 19.5-8.8 37.1-10.6l10.5-1.1 38 38.1 38 38.2 28.8-.5c15.8-.2 29-.6 29.2-.9.3-.2.6-13.6.7-29.6.1-16.1.5-29.1 1-29 .5.2 13.6 13.6 29.3 29.8l28.5 29.4 33.1.3 33.1.2 6-12.7c3.3-7 7.6-16.1 9.5-20.2l3.4-7.4 20.2 20.2 20.2 20.2 29.5-.2 29.5-.3.3-122.5.2-122.5-37.2-37.2-37.3-37.3h-21.7c-20.2 0-21.8-.1-21.8-1.8 0-5.1-8.1-10.1-16.3-10.2-11.6 0-18.8 9.7-13.8 18.7l2.2 3.8-8.7 18c-4.7 9.9-10.5 22.3-12.9 27.5-2.3 5.2-6.3 13.8-8.8 19-2.5 5.2-10 21.2-16.7 35.5-6.7 14.3-12.5 26.3-12.9 26.8-.4.4-2.7-3.4-5.1-8.5-2.3-5.1-6.6-14.3-9.5-20.3-2.9-6.1-6-12.6-6.8-14.5l-1.4-3.5 5.6-.2c7.2-.2 19.4-1.8 20.9-2.7.7-.4 1.2-1.9 1.2-3.4 0-6.8 4.1-13.5 10.2-16.7 2.6-1.5 2.6-1.5 1.3-6.5-1.1-4.3-2.5-6.1-8-11.2-10.2-9.4-11.8-14.3-6.5-19.7 2.1-2.1 4.4-3.2 7.8-3.7 6.2-.9 8.9-2 12.4-4.9 1.9-1.6 4.2-2.5 6.3-2.5 4.7 0 20.3-3.8 23.1-5.7 3.2-2 3.2-4.8.2-3.8-8.9 2.7-9.4 2.7-15.9.7-7-2.2-7.9-2.1-7.9.9 0 2.6-1.8 5.9-3.2 5.9-.6 0-3.1 1-5.5 2.2-4.2 2.1-4.6 2.1-5.8.5-2.5-3.4-7.5-1.6-14.4 5.3-1.6 1.7-4 3-5.3 3-1.3 0-5.2 1.4-8.6 3-3.5 1.7-7.2 3-8.1 3-2.1 0-6.1-3.6-6.1-5.5 0-2.1-3-3.3-6.6-2.8-5.1.8-10.1-2.3-15.2-9.4-3.5-4.9-5.8-6.9-9.9-8.8-5.6-2.7-6.2-3.5-3.8-5.5.8-.7 1.5-2.1 1.5-3.2 0-1 .6-3.1 1.4-4.6.8-1.6 1.4-3.7 1.3-4.7-.2-1.5.5-2.1 2.6-2.3 2.9-.4 3.3-1.2 1.6-4.3-1.5-2.9.2-4.4 7.3-7 4.3-1.6 5.7-2.6 5.3-3.7-.3-.8.2-2.5 1-3.8 2.1-3.3 6.7-3.2 9.3 0 1 1.4 3.6 3.3 5.6 4.2 2 1 3.9 2.8 4.2 4 1.4 5.4 12.2 6 21.6 1.1l6.3-3.3 7 1.8c12.8 3.3 30 5 42 4.3 12.3-.8 28-3.5 37.6-6.6 11.1-3.5 27.9-12.5 37.4-19.9 5-3.9 10.3-7.8 11.9-8.8 1.6-.9 4.6-3.2 6.6-4.9 2-1.8 4.8-3.7 6.1-4.2l2.4-.9-2.3-.9c-2.2-.8-2.2-.9 1.9-6.3 2.3-3 4.7-5.4 5.3-5.2 1.8.4 6.6 6.1 6.6 7.7 0 2 1.3 1.9 6-.5 4.9-2.5 4.7-2.5 5.4.5.7 2.6 3.9 3.5 5.1 1.5.4-.6 2.5-2 4.7-3.1 3.3-1.7 4.2-1.8 4.9-.7 1.3 2 1.1 3.5-.6 4.2-.8.3-1.5 1.1-1.5 1.7 0 1.7 9.2.4 17.1-2.5 9-3.3 11.5-4.6 10-5.5-.9-.6-.9-1.8.2-4.9 1.3-3.8 1.2-5.1-.9-14.9-2.9-13.5-2.9-13.9.1-14.7 2-.5 2.5-1.2 2.5-4 0-2.6.5-3.5 2.3-4.1 1.3-.4 1.7-.8.9-1.2-1.7-.7-7.1 2.6-9.5 5.9-1.7 2.3-1.8 3-.7 4.3 2.4 2.9-.2 5.9-8.5 9.8-8.6 4.1-11.4 4.4-20 2.1-13.7-3.7-17.3-4.3-24-4.4-4.9 0-7.8.5-9.4 1.6-2.2 1.6-2.6 1.3-34-30-17.4-17.4-32.2-31.6-32.8-31.6-.6 0-1.8-.6-2.5-1.3-.7-.8-5.1-3.4-9.8-5.9-4.7-2.5-14.1-7.8-20.8-11.7-6.8-3.9-12.7-7.1-13-7.1-.4 0-1.7 1.8-2.9 3.9-5.7 10-20.5 22.5-32 27-6.6 2.6-15.3 4.7-22.7 5.6l-5.9.7.6-6.5c2.8-30.2 22.2-53.6 51.2-61.9 6.6-1.8 10.5-2.2 21.5-2.2 15.3 0 24.3 1.9 35.2 7.6 6.7 3.5 23.4 18.7 27 24.6 1.2 2.1 2.3 3.9 2.4 4 .3.4 48.3-27.4 49.7-28.7.4-.4-1.9-4.5-5.2-9.2-4.3-5.9-19.3-21.6-50.8-53-36-35.8-46.5-45.7-53.4-50.2-16.7-11-34.7-18-54.4-21.2-9.8-1.6-37.9-1.9-47.6-.4zm123 84.4c18.1 3.5 34.6 10.3 48.6 20 6.7 4.6 23.5 20.8 25.5 24.5.9 1.6-1 3-14.7 11-8.5 5-15.9 9.2-16.4 9.3-.4.1-2.9-2.3-5.5-5.3-6.3-7.4-15.2-14.4-23.7-18.7-21.6-10.8-53.1-11.6-75.1-1.9-15.2 6.8-29.9 20.2-37.2 34.2-7.7 14.7-10.4 25.5-10.4 42.2v9.2l-10.9-.6c-10.3-.7-11.1-.6-16.6 2-9.9 4.5-12.5 3.5-12.5-5.2 0-2.7.4-3.2 2.3-3.2 1.2 0 3.7.9 5.5 2 3.8 2.3 4.6 2.1 6.7-2 1-2 1.2-3.6.6-5.2-.5-1.3-1.4-4.2-2-6.5-1.1-4-4.2-7.3-8.1-8.5-.9-.3.3-1.3 3.3-2.6 4.7-2.1 6.1-4.5 3.1-5.6-2.8-1.1-4.7-.6-7.1 1.6-2.9 2.7-2.9 1.6-.3-7.9 5.2-18.7 14.9-35.3 28.8-49 24.7-24.4 57-36.8 93.7-35.8 7.7.2 17.8 1.1 22.4 2zM265 214.2c0 25.8-.3 32.9-1.2 32-1.7-1.7-4.7-1.5-5.5.3-.7 2 2.4 5.5 4.9 5.5 1.7 0 1.8 1.4 1.8 25 0 13.7-.2 25-.5 25s-3.5-1.8-7-4.1c-3.6-2.2-8.9-4.8-11.8-5.6-11.4-3.3-11.9-3.1-16.7 4.4l-2.7 4.2-.6-42.1c-.4-23.2-.7-50.2-.7-60V181h40v33.2zm15.7 82.5c2 2.7 7.6 8.7 12.3 13.5 8.6 8.7 16 18.2 16 20.6 0 .7-1.2 1.7-2.7 2.3-5.6 2.1-9.7-1.8-14.2-13.4-.6-1.5-1.8-2.7-2.7-2.7-1.2 0-1.5.7-1.1 2.7 1.7 8.9 3.3 13.2 5.7 16.3 1.5 1.9 4.7 6.6 7.2 10.5 5.2 8 7.4 10.2 13.1 13 3.5 1.7 4.5 2.9 6.2 7.5 1.9 4.9 2.5 5.6 6.2 6.8l4.1 1.3v6.6c0 6-.3 6.9-3.4 10.3-4 4.4-4.1 4.8-1.1 5.2l2.2.3-2.2 1.3c-1.5.8-2.9.9-4.7.2-2.2-.8-5.6-.2-8.4 1.6-.2.1.8 3.4 2.2 7.4 1.4 3.9 2.6 8 2.6 9.1 0 1.1.4 1.8.9 1.5.5-.3 1.1.4 1.5 1.7.3 1.2 1.9 2.8 3.6 3.6 1.8.7 3.4 2 3.7 2.8.8 2.1-1.8 7.1-6.7 12.6-5.2 5.9-7.3 7.1-13 7.4-2.5.1-8.9.5-14.4.8-8.9.5-9.8.4-9.2-1.2.8-1.9-.9-3.2-4.4-3.4-2.3 0-2.3-.1-.5-.9 2.5-1.1 2.9-1.1-28.4-1.7l-24.4-.4.6-6.5.5-6.4-3.5.6c-3.2.6-3.5.5-2.9-1.3.6-1.9.1-2.1-6.2-2.7-4.1-.4-8-.3-9.6.4-2.9 1.1-3 1.6-1 8.3.3.9 0 1.9-.8 2.1-.7.2-3.2.9-5.5 1.5-2.6.7-4.3 1.8-4.3 2.6s-.7 1.5-1.5 1.5c-1.9 0-1.9.1.1-4.6 3.8-8.9 3.7-9.3-.9-11.3-5.1-2.2-14.2-9.8-17.9-14.9-3.3-4.6-3.4-5.2-.5-5.2 1.2 0 3.3-.8 4.6-1.7 1.4-.9 4.3-1.8 6.5-1.9 2.3-.2 6.3-.6 9-1l4.8-.6 8.8 8.7 8.8 8.7 29.6.6 29.6.5v-22.7c0-22.6 0-22.6 2.2-22.6 1.3 0 4 1.9 6.7 4.9 2.5 2.7 5.6 5.2 6.9 5.6 4.5 1.3 6.9-3.7 3.7-7.9-.8-1.1-1.5-2.6-1.5-3.4 0-.8-.8-2.6-1.8-4-1.1-1.5-3.1-6.3-4.7-10.7-1.6-4.7-4.6-10.4-7.1-13.8L275 337v-22.5c0-13.3.4-22.5.9-22.5s2.7 2.1 4.8 4.7zm248.6 16c.2.5.7 2 1.1 3.5l.6 2.7-3.4-2.2c-2.4-1.6-3.1-2.5-2.4-3.5 1.2-1.3 3.4-1.6 4.1-.5zm-265.5 23.5c.7.7 1.2 3.1 1.2 5.5 0 4.6-.9 5.5-6.8 6.8-2.9.6-3.7.3-6.3-2.4-2.8-3-2.9-3.3-1.4-6 2-3.9 10.7-6.5 13.3-3.9zm-32.5 1.4c3.6 1.2 5.5 2.7 7.7 5.9 1.7 2.4 3.8 4.6 4.9 5 2.3.7 7.9 7.6 9.2 11.3 1 3 6.3 6.2 9.9 6.2 1.9 0 2 .8 2 20v20h-40v-18.3c0-16.1 1-51.7 1.5-51.7.1 0 2.3.7 4.8 1.6zm460.9 11.7c2.2 1.4 1.1 3.7-1.8 3.7-1.9 0-2.4.5-2.4 2.5 0 3.2-2.7 4.6-10.2 5.3-5.6.5-6 .7-8.9 4.8-1.6 2.4-4.8 6.4-7 9-2.2 2.5-4.3 5.9-4.6 7.5-.3 1.6-1.2 3.4-1.9 4-2.2 1.8-1.7 2.9 2 4.4 3.2 1.4 4.2 1.2 13.8-1.5 5.7-1.6 10.6-3 11.1-3 3.6 0-8.3 7.9-19.5 12.9-13.7 6.1-25.4 9.2-41.7 10.8-14.3 1.5-16.3 1.5-27.8-.1-19.3-2.7-24.4-4.4-30.8-10.5-4.5-4.3-5-5.1-3.2-5.1 1.2 0 2.8-.9 3.5-2 .7-1.1 1.8-2 2.6-2 .7 0 4.7-2.2 8.8-4.9 5.1-3.4 8-6.1 9.1-8.4 2.1-4.4 4.8-4.9 13.5-2.9 5.6 1.2 8.7 1.3 18.8.4 22.8-2 38.8-9.2 53.4-24.2l8.5-8.7 6.5 3.5c3.6 2 7.2 4 8.2 4.5zm16.6 11.8c-.2.6-.7 1-1.1 1-.4-.1-1.4-.1-2.3-.1-.8 0-1.2-.5-.9-1 .8-1.3 4.8-1.3 4.3.1zm-12.8 4.6c1.1 1 2 2.1 2 2.5 0 1.6-4 4.8-6 4.8-2.5 0-6-3.4-6-5.9 0-1.5.8-2.1 3.8-2.4 2-.2 3.8-.4 3.9-.5.2-.1 1.2.6 2.3 1.5zm-111.4 6c-.2.2-2.2.1-4.4-.3-2.7-.4-3.9-1.1-3.6-1.9.4-1 1.4-1 4.5.3 2.1.8 3.8 1.7 3.5 1.9zm-483.9 49.5c.9.8 1 1.5.2 3-.6 1.1-.8 3-.5 4.3.5 1.9.1 2.5-2.6 3.4-3.1 1.1-3.4.9-7.4-3.4-2.3-2.6-4.4-5.7-4.7-7.1l-.4-2.5 7.1.7c3.9.4 7.7 1.1 8.3 1.6zm-8.4 15.2c5.2 2.1 4.7 3.6-1.4 3.6-4.3 0-5.9.6-10 3.5-2.6 2-5.1 4.4-5.4 5.5-.7 2.3-3.5 1.6-3.5-1 0-.9-1.6-3.3-3.5-5.3-2.6-2.7-3.5-4.5-3.5-7 0-1.9-.3-4.9-.6-6.6-.6-2.9-.4-3.2 4.7-5.6l5.4-2.5 7 6.9c3.8 3.8 8.7 7.6 10.8 8.5zm550.4-2.9c1.4.9 2.3 2.5 2.3 4 0 2.5-.1 2.5-9 2.5-8.6 0-9.1.1-10.2 2.5-1.4 3-2.8 2.3-2.8-1.4 0-7.8 12.2-12.5 19.7-7.6zM51 437.9l-2.2 4.9 2.6 5.7c1.4 3.2 2.6 6.3 2.6 6.9 0 .6 1.2 2.9 2.6 5 2.1 3 2.5 4.6 2.1 7.3-.4 2-.8 3.7-1 3.9-.8.8-8.8-2.6-13-5.4-2.3-1.6-6.5-4.1-9.4-5.6-6.2-3.1-7.7-5.4-7-11.1.4-4.4 2.8-8.4 6.2-10.6 2.5-1.6 17.8-6.9 18.4-6.3.3.2-.6 2.6-1.9 5.3zm34 18.6c0 2.7-.3 3.3-1.5 2.8-.9-.3-2.2-1.8-3.1-3.4C79 453 79 453 82 453c2.8 0 3 .3 3 3.5zm412 69c.7.8 2.8 1.5 4.6 1.5 4.3 0 11.4 2.8 11.4 4.5 0 2.2 2.6 2.4 4.4.3 1-1.1 2.4-1.7 3.2-1.4.9.3 2.9.6 4.5.6 2.9 0 3.3.6 8.6 11.7 3 6.5 8.7 18.3 12.5 26.3 3.9 8 19.2 40.1 34 71.5 14.9 31.4 29.1 61.3 31.6 66.5l4.5 9.5 5.8-12c3.1-6.6 13.4-28.2 22.7-48 9.3-19.8 20.3-43 24.4-51.5 4-8.5 14.3-30.2 22.8-48.2l15.5-32.8h50.2l-.1 112.7-.1 112.8-19.7.3-19.8.2-.2-39.7c-.2-21.9-.1-57.5.1-79.1.2-21.5.1-39.2-.3-39.2-.3 0-2.2 3.3-4 7.2-5.8 12.7-33.1 70.8-40 85.2-3.6 7.6-6.6 14-6.6 14.1 0 .2-3.6 7.9-8.1 17.2-4.4 9.2-9.8 20.7-12 25.4l-4 8.6-26.8.2-26.9.2-1.5-3.8c-.8-2.1-4.4-9.9-8-17.3-3.5-7.4-9.2-19.6-12.7-27-3.4-7.4-9-19.4-12.4-26.5-3.4-7.2-13.6-28.6-22.6-47.8-8.9-19.1-16.5-34.5-16.8-34.3-.2.3-.4 35.6-.3 78.5V750H475V615.9l4-6.1c3.1-4.9 4-7.2 4-10.6 0-3.9.6-5.1 5-9.9 2.8-3 5-6 5-6.7 0-.6.8-2.3 1.8-3.6.9-1.4 1.8-3.4 1.9-4.5 0-1.1.4-3 .8-4.3.6-1.8.3-2.2-1.2-2.2-2.6 0-5.8 3.6-7.2 8.2-.7 2-2.8 5.8-4.8 8.4-2 2.6-4.9 7.1-6.5 9.8-2.1 3.9-2.8 4.5-2.8 2.8 0-1.2.7-3.9 1.5-5.9.8-1.9 1.5-4.2 1.5-4.9 0-.8-.7-1.4-1.5-1.4-1 0-1.5-1-1.5-3 0-1.7.4-3 .8-3 2.7 0 15.8-16.2 14.7-18-1.2-1.9-3.5-.9-9.4 4l-6.1 5.1v-15.8l8.8-1.3c9.4-1.3 17.3-1 23.8 1.1 3.4 1 4.7 1 7.3 0 1.7-.8 3.1-2 3.1-2.7 0-.8 1.1-1.7 2.6-2l2.5-.6-3.3-2.3c-1.8-1.2-4.3-3.7-5.6-5.4-1.2-1.7-3.1-3.1-4.2-3.1s-3.8-1.8-5.9-4c-2.2-2.2-6.5-5.4-9.8-7l-5.8-3h3.6c2 0 4.2.7 4.9 1.5zm-160 16.4v9.9l-4.7 1.6c-2.6.9-4.9 1.6-5.1 1.6-1.2 0 .8-9.4 2.8-13.1 1.9-3.7 6-9.7 6.8-9.8.1-.1.2 4.4.2 9.8zm20.3-3.4c5.7 2.8 7.2 4.5 4 4.5-.9 0-2.4.6-3.2 1.4-.9.7-3.5 1.6-5.8 2l-4.3.6v-6.5c0-5.9.2-6.5 1.8-5.7.9.5 4.3 2.1 7.5 3.7zm4.9 23.7c2.7 4.7 1.5 8.1-3.8 10.3-5.4 2.2-9.8 1.9-13.1-1l-2.8-2.4 2.7-.1c2.5 0 2.7-.3 3-5.2.3-5 .5-5.3 3.3-5.8 5.3-1 8.4.2 10.7 4.2zm-25.2 10c2.6 5.5 6.2 7.3 14.3 7.3 8.9-.1 15.2-1.8 18.7-5.4l2.7-2.6 2.5 2.5c1.4 1.4 4.4 3.7 6.6 5.2 2.6 1.7 4.2 3.5 4.2 4.8 0 1.1 1.1 2.7 2.5 3.6l2.5 1.6V632c0 38.1-.2 42.9-1.6 43.4-.9.3-8.8.6-17.7.5-11.7 0-18-.5-22.7-1.7l-6.5-1.7-1.1-4.6c-1.6-6.5-2.9-8.4-6.3-9.9-3-1.2-4.8-4.1-3.7-5.8.3-.5.1-2.3-.4-4.1-1.3-4.8 1.8-6.8 13.3-8.7 3-.5 3.7-1.1 3.7-3 0-1.3-.8-2.7-1.7-3.3-1.5-.8-1.4-1.1 1.2-2.1 6.8-2.7 7.4-4 2.7-5.4-2.5-.7-3-1.3-2.9-3.5.2-2.2-.3-2.7-2.8-2.9-4.1-.5-4.7-1.7-4-8.9.6-6 .6-6.3-1.8-7.2-3.1-1.2-3.4-2.2-4.1-14.6-.4-5.5-.9-12.1-1.2-14.8-.7-5.7 1.2-6.5 3.6-1.5zm-162.3 14.2c3.8 3.2 9.7 6 16.5 8 5.8 1.6 8.8 4.4 8.8 7.8 0 1 .9 2.7 2 3.8 1.8 1.8 1.9 2.5.9 6.5-1.1 4.2-1 4.6 1.5 7.5 3.3 3.9 3.3 5.8.1 7-3.1 1.2-3.1 3.3-.1 8.7l2.4 4.1-5.9 3.2c-3.2 1.7-6.1 3.5-6.5 4.1-.3.6-1.6-1.2-2.9-3.9-3.2-6.9-10.1-11.2-18.1-11.2H170v-24c0-14 .4-24 .9-24s2.2 1.1 3.8 2.4zM313.8 648c1.5 0 2.2.6 2.2 2 0 1.9-.7 2-10.5 2-5.8 0-10.5-.2-10.5-.5s1.5-1.4 3.3-2.6c2.5-1.6 4.2-1.9 8.2-1.5 2.8.3 6 .6 7.3.6zm-135.5 10h3.1l-2 2.1c-1.2 1.2-3.6 2.1-5.5 2.2-3.1.2-3.4 0-3.7-3-.3-3.2-.2-3.3 2.3-2.3 1.4.6 4.1 1 5.8 1zm128.2 6c-.3.5-1.2 1-2 1s-1.7-.5-2-1c-.4-.6.5-1 2-1s2.4.4 2 1zm-97.7 12.7c.2 9.2 0 11.2-1.1 10.7-1.7-.6-9.4 7.6-10.3 11-1.1 4.3-.2 6.1 3.4 6.4 4.4.4 5.1 2.7 1.8 6.1-3 3.1-3.3 5.3-1.1 7.1 1.3 1.1 2.4.9 6.2-1 5.6-2.8 8.8-2.9 11.7-.1 1.2 1.1 4.5 2.8 7.2 3.6 5 1.5 8.1 3.9 10.4 8.4 1.9 3.6.4 12.2-2.8 16.5l-2.7 3.5-30.7.1H170v-9c0-8.9 0-9 2.3-8.5 1.2.3 4.6.9 7.6 1.4 8.8 1.4 11.5-.4 6.9-4.6-3.2-2.9-5.9-4.1-11.7-5.4l-5.1-1.1-.1-6.6c-.2-6.8-.1-39 .1-42.7.1-1.9.2-1.9 1.2.1 1 2.1 1 2.1 7.8.3 3.7-.9 10.5-3.1 15.1-4.7 4.6-1.7 9.8-3 11.4-2.9l3 .2.3 11.2zM337 731.5V749h-11c-10.7 0-11-.1-11.2-2.3-.4-7.4 1.7-14.2 7.9-25l4.5-7.7h9.8v17.5zm-66.5-1.5c.3.5-.3 1-1.4 1-1.2 0-2.1-.5-2.1-1 0-.6.6-1 1.4-1 .8 0 1.8.4 2.1 1z"/><path d="M317.2 385.2c-2.8 2.8-.2 6.8 4.6 6.8 2.5 0 5.5-3.4 5-5.7-.4-2.2-7.6-3.1-9.6-1.1zM229 372.4c0 1.4 1.6 4 4.1 6.5 3.5 3.7 3.9 4.6 3.4 7.3-.4 1.8-.2 4 .6 5.4.9 1.8 1 3 .1 4.9-1.7 3.6.3 4.1 4.4 1l3.4-2.6-2-2.9c-2.7-3.8-2.6-4.5 1.5-7.6 1.9-1.4 3.5-3.3 3.5-4.1 0-1.3-8.3-10.3-9.5-10.3-.3 0-.5.9-.5 2 0 2.5-.7 2.5-4.5 0-3.9-2.6-4.5-2.5-4.5.4zM385.5 627.2c-.3 1.3-1.1 3.3-1.7 4.5l-1.1 2.2-2.8-2.2c-3.8-2.7-8.6-2.6-14.6.5-5.9 2.9-6.4 4.3-1.5 4.4 2 .1 6.6.9 10.2 1.7l6.5 1.4-4 .8c-5.7 1-10.4 2.7-11.7 4.2-.8 1-.1 1.3 3.2 1.3 5.4 0 9.4-1.9 15.3-7.4 4.3-3.9 4.7-4.7 4.7-8.9 0-4.9-1.4-6.3-2.5-2.5zM174.2 593.2c-1.9 1.9-1.4 3.7 1.4 4.4 3 .8 6-1.6 5.1-4-.7-1.9-4.8-2.1-6.5-.4zM176.8 680.8c3 2.6 4.2 4.5 4.2 6.3 0 2.9 1.5 3.9 5.9 3.9 3.1 0 7.1-2.5 7.1-4.5 0-2.3-7.4-6.6-13.7-8.1-8.1-1.9-8.3-1.8-3.5 2.4zM281.5 182.6c-2.1 2.2-1.4 3.8 1.9 4.4l2.8.5-2.2 2c-4.9 4.4-6.3 10.7-3.2 14.3 3 3.6 14.9 9.2 19.4 9.2 4 0 4.1.1 2.4 1.9-1.6 1.8-1.6 2.1-.1 4.5 1.5 2.2 1.5 2.8.2 5.8-.8 1.8-1.7 4.3-2 5.5-.7 3.1 2.2 19.4 4 22.1 3.4 5.4 12.8 7.3 26.3 5.2 10.2-1.6 10.7-1.8 11.4-4.5.3-1.3 1.9-3.9 3.5-5.7 5.2-6 8.2-14.8 4.9-14.8-.6 0-.9.3-.5.6 1 1-2.9 7.7-6.5 11-1.8 1.8-5.3 4.2-7.7 5.4-3.9 2-4.5 2-5.9.6-1.2-1.1-1.3-1.8-.4-2.9 2.9-3.4-2.9-16.4-6.8-15.2-2.5.8-4.4-2.2-4.3-6.6.2-3.7.1-3.9-2.9-3.9-2.9 0-3-.1-1.3-1.3 1.7-1.3 1.7-1.6-.8-6.8l-2.6-5.5-7.7-1.4c-9-1.5-12.4-4-12.4-8.9 0-3.7 1.6-4.8 3.9-2.7 2.1 1.9 5.2 2.3 3.3.4-.8-.8-.7-2 .3-4.6 1.9-4.5 1.9-4.7-.7-7.2-2.6-2.4-5.1-2.6-6.8-.5-1.7 2.1-3 1.9-3-.5 0-2.5-4.1-2.8-6.5-.4zm5 1.4c.3.6-.1 1.3-1 1.6-1.9.8-3 0-2-1.5.8-1.4 2.2-1.4 3-.1zM51.7 224.8c-3.3 3.6-.8 9.2 4.1 9.2 4.4 0 7.9-6.9 5-9.8-1.8-1.8-7.3-1.4-9.1.6zm8.1 3.9c-.4 2.2-5.8 3.1-5.8 1 0-2 1-2.7 3.7-2.7 1.8 0 2.4.5 2.1 1.7zM59.5 251.4c-1.6 1.2-1.7 1.7-.6 4.4 1.8 4.2.7 8.5-1.8 7.7-1-.3-3.8.1-6.2.9-2.4.8-6.3 1.9-8.6 2.6-5.2 1.3-5.5 3.1-.8 5.3 3.2 1.5 3.5 2 3.5 6.1 0 3.6-.5 4.7-2.5 6-3 2-3.2 4.1-.6 5.6 3 1.5 4 1.2 3.4-1.1-.5-1.8-.3-2 1.5-1.5 1.7.6 2.3.2 2.7-1.7.4-1.3.5-2.7.4-3.3-.5-2.7.3-3.4 4.4-3.4 4 0 4.3-.2 5.9-4.1 1.5-3.6 2.1-4.1 4-3.5 1.3.4 6.1 1.2 10.7 1.7 4.7.5 10.1 1.4 12 1.9 4.9 1.3 6.1 1.2 3.1-.3-3.1-1.6-9.3-9.7-10.5-13.9-1.9-6.2-7.4-6.3-8.5-.2-.4 2.3-1.1 3-3.4 3.2-2.6.3-2.8.2-2.2-2.3.4-1.5 1.8-3.9 3.1-5.3 2.3-2.4 2.3-2.7.8-4.4-1.9-2.1-7.1-2.4-9.8-.4zM339.1 267.2c1 2.9 1.8 6 1.9 6.9 0 1.1 1.5 2 4.4 2.8 7.4 1.8 8.6 1.5 5-1.7-1.7-1.5-4.2-4.5-5.4-6.7-4.7-8.2-8.6-9-5.9-1.3z"/><path d="M57 283.4c0 .2.7 1.2 1.6 2 1.7 1.8 3.9 2.2 2.9.6-.7-1.1-4.5-3.3-4.5-2.6zM92.7 290.6c-1 1.3-1.3 2.4-.8 2.4 1 0 3.6-3.9 2.9-4.5-.2-.2-1.1.8-2.1 2.1zM122.5 292c-.3.6.1.7.9.4 1.8-.7 2.1-1.4.7-1.4-.6 0-1.3.4-1.6 1zM368 314c-1.1 1.1-2 2.6-2 3.4 0 2.2 2.9 4.6 5.4 4.6 2.9 0 4.6-1.8 4.6-5 0-5-4.4-6.6-8-3zM394.4 319c-1.2.5-2.5 1.4-2.9 2-1.1 1.7 2.5 8.9 4.8 9.6 1.1.3 3.5 2.2 5.4 4 2.3 2.4 4.3 3.4 6.4 3.4 1.7 0 4.5 1.1 6.3 2.5 3.7 2.8 8.3 3.2 12.5 1 6.9-3.5 4.6-11.5-3.4-11.5-1.7 0-3.9-.6-5-1.4-1.1-.7-3.5-1.7-5.2-2-1.8-.4-3.6-1.2-3.9-1.7-.3-.6-2.4-2.4-4.6-4-4.2-3-6.7-3.4-10.4-1.9zM35.5 331.4c-1.1.8-1.6 1.9-1.2 3 .5 1.3 1.7 1.6 5.3 1.4 8-.5 8.7-5.7.8-5.8-1.6 0-3.9.6-4.9 1.4zM43 333c0 1.2-2.8 2.5-3.6 1.7-.9-.9.6-2.7 2.2-2.7.8 0 1.4.5 1.4 1zM822.5 335.6c.4 2.7 1.2 6.4 1.8 8.2.8 2.3.8 4.1.1 6l-1 2.7 13.7.1h13.8l-.5-5c-.8-8.1-2.4-12.6-4.8-13-1.2-.2-5-1-8.6-1.6-3.6-.7-8.4-1.5-10.8-1.7l-4.4-.5.7 4.8zM19.2 347c-6 3.7-5.1 7.5 1.9 8.6 2.9.5 3.9 1.1 3.7 2.3-.2 1 1.3 2.4 4.1 3.8 2.4 1.2 5.1 2.9 6.1 3.8 3 2.8 3 1.6-.3-3.7-2.3-3.7-2.8-5.3-1.9-5.6.7-.2 2.5-1.4 3.9-2.6 2.2-1.9 2.4-2.6 1.5-4.3-2.4-4.4-13.3-5.7-19-2.3zm9.8 4c0 .5-.5 1-1.1 1-.5 0-.7-.5-.4-1 .3-.6.8-1 1.1-1 .2 0 .4.4.4 1zM401 352.5c-4.1 4.9 9.7 13.6 14.3 9 2.8-2.7 2-4.2-4-7.4-6.3-3.4-8.5-3.8-10.3-1.6zM54.2 355.2c.2 1.6 1 2.3 2.6 2.4 1.8.1 1.9.1.2-.3-2.3-.5-2.5-1.4-.8-3.1.9-.9.8-1.2-.6-1.2-1.2 0-1.6.6-1.4 2.2zM460.6 361.2c-.9 1.2-1.6 2.8-1.6 3.5 0 1.8 4.1 4.3 7 4.3 3.3 0 5-1.7 5-5 0-3.5-1.7-5-5.6-5-2.3 0-3.8.7-4.8 2.2zM438.6 364.1c-4.9 3.9-2.4 10.9 4 10.9 3.8 0 9-3.2 9.9-6.1.6-1.8.1-2.8-1.9-4.6-3.4-2.9-8.4-3-12-.2zM119.2 366.3c1.4.7 3.6 2.1 4.7 3.1 2 1.9 2.8 1.2 1.3-1-1-1.6-4.8-3.4-6.9-3.3-1.3 0-1.1.4.9 1.2zM421.5 369.6c-1.4 1.5-2.5 3.5-2.5 4.4 0 2.3 3.2 5 5.8 5 2.8 0 6.2-3.4 6.2-6 0-2.4-3.4-6-5.5-6-.9 0-2.7 1.2-4 2.6zM105.2 370.6c-4.5 3.1-1.3 10.4 4.6 10.4l2.7-.1-3.2-1.4c-3.9-1.7-5-4.8-2.9-8 1.9-2.9 1.8-3-1.2-.9zM33.4 372c-4.6 1.8-3.7 5.7 1.7 6.9 7.8 1.6 13.1-2.2 7.2-5.2-4.3-2.2-6.6-2.6-8.9-1.7zM721 402.5c-1.8 2.1-1.1 2.5 3 1.6 3.4-.7 3.4-.8 1.3-1.9-2.7-1.5-2.8-1.5-4.3.3zM702 411c-.8.5-3.4 1.4-5.7 2-3.7.9-4.3 1.6-5.9 5.5-.9 2.5-1.4 4.8-1.1 5.1.3.3 4.4-2.6 9.2-6.5 5-4.2 7.9-7.1 6.8-7-1 0-2.5.4-3.3.9zM579.7 425.7c-1.6 1.6-.6 4.3 1.6 4.2 2.1 0 2.1-.1.2-.9-1.9-.9-1.9-.9.3-1.6 1.2-.3 2.2-1 2.2-1.5 0-1-3.4-1.2-4.3-.2zM516.6 442.6c-2.3 2.3-1.6 4.8 1.4 5.2 2.2.2 2.3.1.8-.8-1-.6-1.8-1.5-1.8-1.9 0-1.6 3.2-2.2 4.7-.9 1.3 1 1.5.9 1.2-.7-.5-2.6-4.2-3.1-6.3-.9zM551.2 444.7c-2.7 2.2-3.3 6.2-1 7.6 2.7 1.8 9.6-.8 10.4-3.9.8-3-.2-4.2-4.2-5-2.1-.4-3.6 0-5.2 1.3zm6.3 3.8c0 1.3-.8 2.1-2.4 2.3-3.2.5-4.8-1.2-3.1-3.3 1.8-2.2 5.5-1.5 5.5 1zM850 530.3c0 4.9-1.2 7.1-5.2 9.5-3.6 2.2-17.1 6.1-30.9 9.2-10.9 2.3-17.9 5.3-17.9 7.5 0 1.4 1 1.5 7.3 1 10.5-1 19.9-3.1 24.5-5.4 2.3-1.2 5.3-2.1 6.7-2.1 2.2 0 2.5.3 2 2.1-.4 1.1-.1 3.4.5 5 1 2.3 1.7 2.8 3.2 2.3 1.2-.3 2.7.1 3.9 1.2 2.6 2.3 3.5 1.1 1.9-2.6-1.2-2.9-1.1-3.3 1.4-5.9 1.4-1.5 2.6-3.5 2.6-4.4 0-.9.5-1.7 1-1.7 1.3 0 1.3-16 0-18-.7-1.1-1-.5-1 2.3zM23 571c1.4.4 3.6.8 5 .8 2.3.1 2.3 0 .5-.8-1.1-.5-3.3-.8-5-.8-2.9 0-2.9 0-.5.8zM8.3 581.7c.9.2 2.3.2 3 0 .6-.3-.1-.5-1.8-.5-1.6 0-2.2.2-1.2.5zM849.3 644.7c-1.8.7-1.6 3 .3 3.7 2.3.9 2.4.8 2.4-1.9 0-2.5-.4-2.8-2.7-1.8zM61.2 703.7c-3 5.7-3 6-1.1 7.1 2.2 1.4 5.6 0 9.7-3.8 2.6-2.5 5.6-6.9 5.1-7.5-.3-.2-2.8-.7-5.6-1.1l-5.2-.6-2.9 5.9zM407.4 732.4c-12.8 2.7-20.7 6.2-21.2 9.4-.5 3.5 3.8 5.4 14.4 6.4 9.4.8 9.6.8 12.6-1.7 4-3.4 6.7-3.2 11.4.9 4.3 3.7 6.3 7.5 8.9 17.1 1.9 6.7 6.5 11.9 11.4 13 3.1.7 7.1-.8 7.1-2.7 0-3.1-6.7-12.2-11.6-15.8-6.5-4.9-7.4-6.4-7.4-13.2 0-5.2-.2-5.6-5.3-10.6-2.9-2.9-6.1-5.2-7.2-5.1-1.1 0-7 1.1-13.1 2.3zM81.5 768.9c-4.7 1.2-7 2.7-11.4 7.7-5.9 6.8-5.7 9.9 1.1 15.6 2.8 2.4 7 6 9.4 8.1l4.2 3.8 8.4-1.1c10.2-1.4 12-2.8 14.2-11.6l1.6-6.6-2.6-4.4c-4.3-7.4-17.2-13.3-24.9-11.5zm15.7 21.3c-2.2 2.2-4.2 3.1-7.3 3.4l-4.4.4 6.3-2.9c3.4-1.7 6.5-3.8 6.9-4.7.5-1.3.8-1.4 1.1-.5.2.7-.9 2.7-2.6 4.3zM613.3 784.7c-2.3.9-1.4 2.5 1 1.8 3.1-1 4.5-2.5 2.2-2.4-1.1 0-2.6.3-3.2.6zM611.6 795.5c.4.8 1 1.5 1.5 1.5.4 0 .6-.7.3-1.5-.4-.8-1-1.5-1.5-1.5-.4 0-.6.7-.3 1.5zM66 807c-3.6 1-8.2 1.9-10.3 1.9-2.1.1-3.6.5-3.3.9.5.9 20.9-1.1 23.9-2.3.9-.4 1.7-1.1 1.7-1.6 0-1.4-4.8-.9-12 1.1zM284.7 805.7c-.4.3-.7 3-.7 5.8v5.3l4 1c2.2.5 4 .6 4 .1 0-1.7-6.7-12.9-7.3-12.2zM334.5 806.7c-3 .8-4.4 2.2-7 7.4l-2.4 4.6 2.2 2.1c1.2 1.1 3.4 2.3 4.8 2.7 2.5.6 2.7.4 3.4-3.7.4-2.4 1.6-6.3 2.6-8.7 1-2.4 1.9-4.5 1.9-4.7 0-.5-2.9-.3-5.5.3zM329.5 835.1c-5.2 2.8-9.4 6.8-10.2 9.7-.7 3 3.1 7.2 6.6 7.2 2.2 0 3-1 5.4-6.4 1.7-3.8 2.7-7.6 2.5-9.5l-.3-3.1-4 2.1zM281.6 841.7c-.3.3-.6 2.8-.6 5.5v4.8h5c5 0 5 0 4.4-2.8-.4-1.5-1-3.2-1.5-3.7-1.3-1.7-6.6-4.5-7.3-3.8z"/></svg>